<mxfile host="app.diagrams.net" modified="2020-06-12T03:38:22.733Z" agent="5.0 (Macintosh; Intel Mac OS X 10_15_4) AppleWebKit/605.1.15 (KHTML, like Gecko) Version/13.1 Safari/605.1.15" etag="IoX8gOMBCaWtc3r0wO_G" version="13.2.3" type="github">
  <diagram id="TZqHn7J16j0pEVmaMygz" name="Page-1">
    <mxGraphModel dx="1022" dy="-358" grid="1" gridSize="10" guides="1" tooltips="1" connect="1" arrows="1" fold="1" page="1" pageScale="1" pageWidth="827" pageHeight="1169" math="0" shadow="0">
      <root>
        <mxCell id="0" />
        <mxCell id="1" parent="0" />
        <mxCell id="nHZKjE-IO91c4YQ0--pk-1" value="MGRedPacketManager&lt;br&gt;&lt;div&gt;[Components&lt;span&gt;]&lt;/span&gt;&lt;/div&gt;&lt;br&gt;&lt;div&gt;红包雨管理组件&lt;/div&gt;" style="rounded=1;whiteSpace=wrap;html=1;labelBackgroundColor=none;fillColor=#f5f5f5;fontColor=#333333;align=center;arcSize=10;strokeColor=#666666;points=[[0.25,0,0],[0.5,0,0],[0.75,0,0],[1,0.25,0],[1,0.5,0],[1,0.75,0],[0.75,1,0],[0.5,1,0],[0.25,1,0],[0,0.75,0],[0,0.5,0],[0,0.25,0]];" vertex="1" parent="1">
          <mxGeometry x="317" y="1290" width="160" height="110.00000000000001" as="geometry" />
        </mxCell>
        <mxCell id="nHZKjE-IO91c4YQ0--pk-2" value="&lt;div style=&quot;text-align: left&quot;&gt;红包雨角标&lt;/div&gt;&lt;div style=&quot;text-align: left&quot;&gt;[Business]&lt;/div&gt;" style="rounded=1;whiteSpace=wrap;html=1;labelBackgroundColor=none;fillColor=#ffffff;fontColor=#000000;align=left;arcSize=5;strokeColor=#000000;verticalAlign=bottom;points=[[0.25,0,0],[0.5,0,0],[0.75,0,0],[1,0.25,0],[1,0.5,0],[1,0.75,0],[0.75,1,0],[0.5,1,0],[0.25,1,0],[0,0.75,0],[0,0.5,0],[0,0.25,0]];glass=0;" vertex="1" parent="1">
          <mxGeometry x="91" y="1429" width="640" height="221" as="geometry" />
        </mxCell>
        <mxCell id="nHZKjE-IO91c4YQ0--pk-3" value="收到相&lt;br&gt;关回调" style="edgeStyle=orthogonalEdgeStyle;rounded=0;orthogonalLoop=1;jettySize=auto;html=1;exitX=1;exitY=0.5;exitDx=0;exitDy=0;exitPerimeter=0;entryX=0;entryY=0.5;entryDx=0;entryDy=0;entryPerimeter=0;dashed=1;strokeColor=#000000;strokeWidth=1;" edge="1" parent="1" source="nHZKjE-IO91c4YQ0--pk-4" target="nHZKjE-IO91c4YQ0--pk-7">
          <mxGeometry relative="1" as="geometry" />
        </mxCell>
        <mxCell id="nHZKjE-IO91c4YQ0--pk-4" value="&lt;b&gt;注册长链接/广告回调&lt;br&gt;&lt;/b&gt;" style="rounded=1;whiteSpace=wrap;html=1;labelBackgroundColor=none;fillColor=#dae8fc;fontColor=#000000;align=center;arcSize=10;strokeColor=#6c8ebf;points=[[0.25,0,0],[0.5,0,0],[0.75,0,0],[1,0.25,0],[1,0.5,0],[1,0.75,0],[0.75,1,0],[0.5,1,0],[0.25,1,0],[0,0.75,0],[0,0.5,0],[0,0.25,0]];glass=0;" vertex="1" parent="1">
          <mxGeometry x="147" y="1460" width="140" height="60" as="geometry" />
        </mxCell>
        <mxCell id="nHZKjE-IO91c4YQ0--pk-5" value="&lt;div style=&quot;text-align: left&quot;&gt;&lt;div style=&quot;text-align: center&quot;&gt;&lt;br&gt;&lt;/div&gt;&lt;/div&gt;" style="edgeStyle=orthogonalEdgeStyle;rounded=0;html=1;jettySize=auto;orthogonalLoop=1;strokeColor=#000000;strokeWidth=1;fontColor=#000000;jumpStyle=none;dashed=1;exitX=0;exitY=0.5;exitDx=0;exitDy=0;exitPerimeter=0;entryX=0.45;entryY=0.033;entryDx=0;entryDy=0;entryPerimeter=0;" edge="1" parent="1" source="nHZKjE-IO91c4YQ0--pk-1" target="nHZKjE-IO91c4YQ0--pk-4">
          <mxGeometry width="200" relative="1" as="geometry">
            <mxPoint x="337" y="737.5" as="sourcePoint" />
            <mxPoint x="197" y="1065" as="targetPoint" />
          </mxGeometry>
        </mxCell>
        <mxCell id="nHZKjE-IO91c4YQ0--pk-6" style="edgeStyle=orthogonalEdgeStyle;rounded=0;orthogonalLoop=1;jettySize=auto;html=1;exitX=1;exitY=0.5;exitDx=0;exitDy=0;exitPerimeter=0;entryX=0;entryY=0.5;entryDx=0;entryDy=0;entryPerimeter=0;dashed=1;strokeColor=#000000;strokeWidth=1;" edge="1" parent="1" source="nHZKjE-IO91c4YQ0--pk-7" target="nHZKjE-IO91c4YQ0--pk-9">
          <mxGeometry relative="1" as="geometry" />
        </mxCell>
        <mxCell id="nHZKjE-IO91c4YQ0--pk-7" value="&lt;b&gt;判断收到数据&lt;br&gt;是否有效&lt;br&gt;&lt;/b&gt;" style="rounded=1;whiteSpace=wrap;html=1;labelBackgroundColor=none;fillColor=#dae8fc;fontColor=#000000;align=center;arcSize=10;strokeColor=#6c8ebf;points=[[0.25,0,0],[0.5,0,0],[0.75,0,0],[1,0.25,0],[1,0.5,0],[1,0.75,0],[0.75,1,0],[0.5,1,0],[0.25,1,0],[0,0.75,0],[0,0.5,0],[0,0.25,0]];glass=0;" vertex="1" parent="1">
          <mxGeometry x="347" y="1460" width="140" height="60" as="geometry" />
        </mxCell>
        <mxCell id="nHZKjE-IO91c4YQ0--pk-8" style="edgeStyle=orthogonalEdgeStyle;rounded=0;orthogonalLoop=1;jettySize=auto;html=1;exitX=0.5;exitY=1;exitDx=0;exitDy=0;exitPerimeter=0;entryX=0.5;entryY=0;entryDx=0;entryDy=0;entryPerimeter=0;dashed=1;strokeColor=#000000;strokeWidth=1;" edge="1" parent="1" source="nHZKjE-IO91c4YQ0--pk-9" target="nHZKjE-IO91c4YQ0--pk-11">
          <mxGeometry relative="1" as="geometry" />
        </mxCell>
        <mxCell id="nHZKjE-IO91c4YQ0--pk-9" value="&lt;b&gt;判断是否显示角标&lt;br&gt;&lt;/b&gt;" style="rounded=1;whiteSpace=wrap;html=1;labelBackgroundColor=none;fillColor=#dae8fc;fontColor=#000000;align=center;arcSize=10;strokeColor=#6c8ebf;points=[[0.25,0,0],[0.5,0,0],[0.75,0,0],[1,0.25,0],[1,0.5,0],[1,0.75,0],[0.75,1,0],[0.5,1,0],[0.25,1,0],[0,0.75,0],[0,0.5,0],[0,0.25,0]];glass=0;" vertex="1" parent="1">
          <mxGeometry x="527" y="1460" width="140" height="60" as="geometry" />
        </mxCell>
        <mxCell id="nHZKjE-IO91c4YQ0--pk-10" style="edgeStyle=orthogonalEdgeStyle;rounded=0;orthogonalLoop=1;jettySize=auto;html=1;exitX=0;exitY=0.5;exitDx=0;exitDy=0;exitPerimeter=0;dashed=1;strokeColor=#000000;strokeWidth=1;" edge="1" parent="1" source="nHZKjE-IO91c4YQ0--pk-11" target="nHZKjE-IO91c4YQ0--pk-12">
          <mxGeometry relative="1" as="geometry" />
        </mxCell>
        <mxCell id="nHZKjE-IO91c4YQ0--pk-11" value="&lt;b&gt;角标位置处理&lt;br&gt;&lt;/b&gt;" style="rounded=1;whiteSpace=wrap;html=1;labelBackgroundColor=none;fillColor=#dae8fc;fontColor=#000000;align=center;arcSize=10;strokeColor=#6c8ebf;points=[[0.25,0,0],[0.5,0,0],[0.75,0,0],[1,0.25,0],[1,0.5,0],[1,0.75,0],[0.75,1,0],[0.5,1,0],[0.25,1,0],[0,0.75,0],[0,0.5,0],[0,0.25,0]];glass=0;" vertex="1" parent="1">
          <mxGeometry x="527" y="1554" width="140" height="60" as="geometry" />
        </mxCell>
        <mxCell id="nHZKjE-IO91c4YQ0--pk-12" value="&lt;b&gt;角标倒计时处理&lt;br&gt;&lt;/b&gt;" style="rounded=1;whiteSpace=wrap;html=1;labelBackgroundColor=none;fillColor=#dae8fc;fontColor=#000000;align=center;arcSize=10;strokeColor=#6c8ebf;points=[[0.25,0,0],[0.5,0,0],[0.75,0,0],[1,0.25,0],[1,0.5,0],[1,0.75,0],[0.75,1,0],[0.5,1,0],[0.25,1,0],[0,0.75,0],[0,0.5,0],[0,0.25,0]];glass=0;" vertex="1" parent="1">
          <mxGeometry x="347" y="1554" width="140" height="60" as="geometry" />
        </mxCell>
        <mxCell id="nHZKjE-IO91c4YQ0--pk-13" value="MGRedPacketManager&lt;br&gt;&lt;div&gt;[Components&lt;span&gt;]&lt;/span&gt;&lt;/div&gt;&lt;br&gt;&lt;div&gt;红包雨管理组件&lt;/div&gt;" style="rounded=1;whiteSpace=wrap;html=1;labelBackgroundColor=none;fillColor=#f5f5f5;fontColor=#333333;align=center;arcSize=10;strokeColor=#666666;points=[[0.25,0,0],[0.5,0,0],[0.75,0,0],[1,0.25,0],[1,0.5,0],[1,0.75,0],[0.75,1,0],[0.5,1,0],[0.25,1,0],[0,0.75,0],[0,0.5,0],[0,0.25,0]];" vertex="1" parent="1">
          <mxGeometry x="323" y="1730" width="160" height="110.00000000000001" as="geometry" />
        </mxCell>
        <mxCell id="nHZKjE-IO91c4YQ0--pk-14" value="&lt;div style=&quot;text-align: left&quot;&gt;红包雨主页面&lt;/div&gt;&lt;div style=&quot;text-align: left&quot;&gt;[Business]&lt;/div&gt;" style="rounded=1;whiteSpace=wrap;html=1;labelBackgroundColor=none;fillColor=#ffffff;fontColor=#000000;align=left;arcSize=5;strokeColor=#000000;verticalAlign=bottom;points=[[0.25,0,0],[0.5,0,0],[0.75,0,0],[1,0.25,0],[1,0.5,0],[1,0.75,0],[0.75,1,0],[0.5,1,0],[0.25,1,0],[0,0.75,0],[0,0.5,0],[0,0.25,0]];glass=0;" vertex="1" parent="1">
          <mxGeometry x="97" y="1869" width="640" height="331" as="geometry" />
        </mxCell>
        <mxCell id="nHZKjE-IO91c4YQ0--pk-15" value="" style="edgeStyle=orthogonalEdgeStyle;rounded=0;orthogonalLoop=1;jettySize=auto;html=1;exitX=1;exitY=0.5;exitDx=0;exitDy=0;exitPerimeter=0;entryX=0;entryY=0.5;entryDx=0;entryDy=0;entryPerimeter=0;dashed=1;strokeColor=#000000;strokeWidth=1;" edge="1" parent="1" source="nHZKjE-IO91c4YQ0--pk-16" target="nHZKjE-IO91c4YQ0--pk-19">
          <mxGeometry relative="1" as="geometry" />
        </mxCell>
        <mxCell id="nHZKjE-IO91c4YQ0--pk-16" value="&lt;b&gt;开始红包雨&lt;br&gt;&lt;/b&gt;" style="rounded=1;whiteSpace=wrap;html=1;labelBackgroundColor=none;fillColor=#dae8fc;fontColor=#000000;align=center;arcSize=10;strokeColor=#6c8ebf;points=[[0.25,0,0],[0.5,0,0],[0.75,0,0],[1,0.25,0],[1,0.5,0],[1,0.75,0],[0.75,1,0],[0.5,1,0],[0.25,1,0],[0,0.75,0],[0,0.5,0],[0,0.25,0]];glass=0;" vertex="1" parent="1">
          <mxGeometry x="153" y="1900" width="140" height="60" as="geometry" />
        </mxCell>
        <mxCell id="nHZKjE-IO91c4YQ0--pk-17" value="&lt;div style=&quot;text-align: left&quot;&gt;&lt;div style=&quot;text-align: center&quot;&gt;&lt;br&gt;&lt;/div&gt;&lt;/div&gt;" style="edgeStyle=orthogonalEdgeStyle;rounded=0;html=1;jettySize=auto;orthogonalLoop=1;strokeColor=#000000;strokeWidth=1;fontColor=#000000;jumpStyle=none;dashed=1;exitX=0;exitY=0.5;exitDx=0;exitDy=0;exitPerimeter=0;entryX=0.45;entryY=0.033;entryDx=0;entryDy=0;entryPerimeter=0;" edge="1" parent="1" source="nHZKjE-IO91c4YQ0--pk-13" target="nHZKjE-IO91c4YQ0--pk-16">
          <mxGeometry width="200" relative="1" as="geometry">
            <mxPoint x="343" y="1177.5" as="sourcePoint" />
            <mxPoint x="203" y="1505" as="targetPoint" />
          </mxGeometry>
        </mxCell>
        <mxCell id="nHZKjE-IO91c4YQ0--pk-18" style="edgeStyle=orthogonalEdgeStyle;rounded=0;orthogonalLoop=1;jettySize=auto;html=1;exitX=1;exitY=0.5;exitDx=0;exitDy=0;exitPerimeter=0;entryX=0;entryY=0.5;entryDx=0;entryDy=0;entryPerimeter=0;dashed=1;strokeColor=#000000;strokeWidth=1;" edge="1" parent="1" source="nHZKjE-IO91c4YQ0--pk-19" target="nHZKjE-IO91c4YQ0--pk-21">
          <mxGeometry relative="1" as="geometry" />
        </mxCell>
        <mxCell id="nHZKjE-IO91c4YQ0--pk-19" value="&lt;b&gt;确认显示皮肤&lt;br&gt;&lt;/b&gt;" style="rounded=1;whiteSpace=wrap;html=1;labelBackgroundColor=none;fillColor=#dae8fc;fontColor=#000000;align=center;arcSize=10;strokeColor=#6c8ebf;points=[[0.25,0,0],[0.5,0,0],[0.75,0,0],[1,0.25,0],[1,0.5,0],[1,0.75,0],[0.75,1,0],[0.5,1,0],[0.25,1,0],[0,0.75,0],[0,0.5,0],[0,0.25,0]];glass=0;" vertex="1" parent="1">
          <mxGeometry x="353" y="1900" width="140" height="60" as="geometry" />
        </mxCell>
        <mxCell id="nHZKjE-IO91c4YQ0--pk-20" style="edgeStyle=orthogonalEdgeStyle;rounded=0;orthogonalLoop=1;jettySize=auto;html=1;exitX=0.5;exitY=1;exitDx=0;exitDy=0;exitPerimeter=0;entryX=0.5;entryY=0;entryDx=0;entryDy=0;entryPerimeter=0;dashed=1;strokeColor=#000000;strokeWidth=1;" edge="1" parent="1" source="nHZKjE-IO91c4YQ0--pk-21" target="nHZKjE-IO91c4YQ0--pk-23">
          <mxGeometry relative="1" as="geometry" />
        </mxCell>
        <mxCell id="nHZKjE-IO91c4YQ0--pk-21" value="&lt;b&gt;预警倒计时&lt;br&gt;&lt;/b&gt;" style="rounded=1;whiteSpace=wrap;html=1;labelBackgroundColor=none;fillColor=#dae8fc;fontColor=#000000;align=center;arcSize=10;strokeColor=#6c8ebf;points=[[0.25,0,0],[0.5,0,0],[0.75,0,0],[1,0.25,0],[1,0.5,0],[1,0.75,0],[0.75,1,0],[0.5,1,0],[0.25,1,0],[0,0.75,0],[0,0.5,0],[0,0.25,0]];glass=0;" vertex="1" parent="1">
          <mxGeometry x="533" y="1900" width="140" height="60" as="geometry" />
        </mxCell>
        <mxCell id="nHZKjE-IO91c4YQ0--pk-22" style="edgeStyle=orthogonalEdgeStyle;rounded=0;orthogonalLoop=1;jettySize=auto;html=1;exitX=0;exitY=0.5;exitDx=0;exitDy=0;exitPerimeter=0;dashed=1;strokeColor=#000000;strokeWidth=1;" edge="1" parent="1" source="nHZKjE-IO91c4YQ0--pk-23" target="nHZKjE-IO91c4YQ0--pk-25">
          <mxGeometry relative="1" as="geometry" />
        </mxCell>
        <mxCell id="nHZKjE-IO91c4YQ0--pk-23" value="&lt;b&gt;红包雨开始&lt;br&gt;&lt;/b&gt;" style="rounded=1;whiteSpace=wrap;html=1;labelBackgroundColor=none;fillColor=#dae8fc;fontColor=#000000;align=center;arcSize=10;strokeColor=#6c8ebf;points=[[0.25,0,0],[0.5,0,0],[0.75,0,0],[1,0.25,0],[1,0.5,0],[1,0.75,0],[0.75,1,0],[0.5,1,0],[0.25,1,0],[0,0.75,0],[0,0.5,0],[0,0.25,0]];glass=0;" vertex="1" parent="1">
          <mxGeometry x="533" y="1994" width="140" height="60" as="geometry" />
        </mxCell>
        <mxCell id="nHZKjE-IO91c4YQ0--pk-24" style="edgeStyle=orthogonalEdgeStyle;rounded=0;orthogonalLoop=1;jettySize=auto;html=1;exitX=0;exitY=0.5;exitDx=0;exitDy=0;exitPerimeter=0;entryX=1;entryY=0.5;entryDx=0;entryDy=0;entryPerimeter=0;dashed=1;strokeColor=#000000;strokeWidth=1;" edge="1" parent="1" source="nHZKjE-IO91c4YQ0--pk-25" target="nHZKjE-IO91c4YQ0--pk-27">
          <mxGeometry relative="1" as="geometry" />
        </mxCell>
        <mxCell id="nHZKjE-IO91c4YQ0--pk-25" value="&lt;b&gt;红包/动画/点击处理&lt;br&gt;&lt;/b&gt;" style="rounded=1;whiteSpace=wrap;html=1;labelBackgroundColor=none;fillColor=#dae8fc;fontColor=#000000;align=center;arcSize=10;strokeColor=#6c8ebf;points=[[0.25,0,0],[0.5,0,0],[0.75,0,0],[1,0.25,0],[1,0.5,0],[1,0.75,0],[0.75,1,0],[0.5,1,0],[0.25,1,0],[0,0.75,0],[0,0.5,0],[0,0.25,0]];glass=0;" vertex="1" parent="1">
          <mxGeometry x="353" y="1994" width="140" height="60" as="geometry" />
        </mxCell>
        <mxCell id="nHZKjE-IO91c4YQ0--pk-26" style="edgeStyle=orthogonalEdgeStyle;rounded=0;orthogonalLoop=1;jettySize=auto;html=1;exitX=0.5;exitY=1;exitDx=0;exitDy=0;exitPerimeter=0;entryX=0.5;entryY=0;entryDx=0;entryDy=0;entryPerimeter=0;dashed=1;strokeColor=#000000;strokeWidth=1;" edge="1" parent="1" source="nHZKjE-IO91c4YQ0--pk-27" target="nHZKjE-IO91c4YQ0--pk-28">
          <mxGeometry relative="1" as="geometry" />
        </mxCell>
        <mxCell id="nHZKjE-IO91c4YQ0--pk-27" value="&lt;b&gt;红包雨结束&lt;br&gt;&lt;/b&gt;" style="rounded=1;whiteSpace=wrap;html=1;labelBackgroundColor=none;fillColor=#dae8fc;fontColor=#000000;align=center;arcSize=10;strokeColor=#6c8ebf;points=[[0.25,0,0],[0.5,0,0],[0.75,0,0],[1,0.25,0],[1,0.5,0],[1,0.75,0],[0.75,1,0],[0.5,1,0],[0.25,1,0],[0,0.75,0],[0,0.5,0],[0,0.25,0]];glass=0;" vertex="1" parent="1">
          <mxGeometry x="153" y="1994" width="140" height="60" as="geometry" />
        </mxCell>
        <mxCell id="nHZKjE-IO91c4YQ0--pk-28" value="&lt;b&gt;结果展示&lt;br&gt;&lt;/b&gt;" style="rounded=1;whiteSpace=wrap;html=1;labelBackgroundColor=none;fillColor=#dae8fc;fontColor=#000000;align=center;arcSize=10;strokeColor=#6c8ebf;points=[[0.25,0,0],[0.5,0,0],[0.75,0,0],[1,0.25,0],[1,0.5,0],[1,0.75,0],[0.75,1,0],[0.5,1,0],[0.25,1,0],[0,0.75,0],[0,0.5,0],[0,0.25,0]];glass=0;" vertex="1" parent="1">
          <mxGeometry x="153" y="2090" width="140" height="60" as="geometry" />
        </mxCell>
      </root>
    </mxGraphModel>
  </diagram>
</mxfile>
